PathFileType	4	(X/Y/Z)	/home/abdul/Desktop/myosuite/custom_workspace/IK/output/S1_12_2.trc
DataRate	CameraRate	NumFrames	NumMarkers	Units	OrigDataRate	OrigDataStartFrame	OrigNumFrames
200.0	200.0	44	3	mm	200.0	790	1578
Frame#	Time	V_Shoulder			V_Elbow			V_Wrist		
		X1	Y1	Z1	X2	Y2	Z2	X3	Y3	Z3

790	3.945	-191.3054951643065	549.3027154359002	383.6045989941841	-302.4553204629505	354.01799612197027	91.09383559103546	-180.71016911462493	131.6392123323092	194.95879876408105
791	3.95	-191.4164291163414	548.6392929975055	383.38123374048126	-301.78921714753324	353.84831046997067	90.18065901211295	-179.9464818730606	131.03722274110783	192.94399211650386
792	3.955	-191.52382110124202	547.9774454725024	383.1602462321477	-301.1270356986224	353.6787885539187	89.27832182582728	-179.1787307102946	130.4465811044401	190.94321810968978
793	3.96	-191.6276734919803	547.3172267443132	382.94167516488545	-300.4690248896552	353.5094700901103	88.38680319965727	-178.4072037352663	129.8672371277557	188.95668667813592
794	3.965	-191.72799081580843	546.6586935969168	382.7255573206382	-299.81542680101455	353.3403926730103	87.50608149533113	-177.6321919680678	129.29914344458433	186.98461987276505
795	3.97	-191.82477978900246	546.0019057510722	382.51192754326803	-299.166476513402	353.17159175964844	86.63613434922259	-176.85398948070537	128.74225489972576	185.0272516717391
796	3.975	-191.91804934851498	545.3469258850946	382.3008187158157	-298.52240181982245	353.00310065616316	85.77693874506171	-176.0728935135959	128.19652782699362	183.08482770293665
797	3.98	-192.00781068032498	544.6938196402165	382.0922617393075	-297.88342295699056	352.8349505067039	84.92847107868016	-175.2892045659023	127.66191932602439	181.15760487944715
798	3.985	-192.09407724428308	544.0426556106304	381.8862855130744	-297.24975235688646	352.6671702849314	84.0907072145111	-174.5032264580056	127.1383865426181	179.24585094985437
799	3.99	-192.1768647952665	543.3935053183709	381.6829169165476	-296.6215944191041	352.4997867883827	83.26362253356542	-173.71526636461607	126.62588595701095	177.34984396548975
800	3.995	-192.25619140046828	542.7464431732554	381.4821807924991	-295.9991453045509	352.3328246359925	82.44719197261021	-172.92563481724136	126.1243726843911	175.4698716672347
801	4.0	-192.33207745266327	542.1015464181563	381.2840999316966	-295.38259275096544	352.16630626908864	81.64139005428173	-172.13464567495416	125.63379979185693	173.60623079483508
802	4.005	-192.40454567930843	541.4588950599407	381.088695058944	-294.77211591063224	352.00025195620117	80.84619090787531	-171.34261606263257	125.1541176358838	171.75922632206192
803	4.01	-192.47362114735037	540.8185717864629	380.89598482048456	-294.16788521058015	351.83467980204307	80.06156828056815	-170.54986627608372	124.6852732242116	169.92917062140603
804	4.015	-192.53933126363177	540.1806618700506	380.70598577274774	-293.57006223545943	351.66960576103986	79.28749553884843	-169.75671965370097	124.22720960589058	168.11638256232806
805	4.02	-192.6017057708044	539.5452530579745	380.5187123724227	-292.978799633202	351.5050436557963	78.52394565994621	-168.96350241454772	123.77986529302945	166.32118654740378
806	4.025	-192.66077673867596	538.9124354504403	380.3341769678512	-292.3942410434804	351.3410052008991	77.77089121308832	-168.17054346300228	123.34317371757822	164.5439114909966
807	4.03	-192.71657855093517	538.282301366684	380.15238979173387	-291.81652104889076	351.1775000324574	77.0283043304315	-167.3781741603392	122.91706272624874	162.78488974536248
808	4.035	-192.7691478872181	537.6549451997985	379.97335895515545	-291.2457651487013	351.014535743785	76.29615666756504	-166.58672806385943	122.5014541164314	161.0444559793408
809	4.04	-192.8185237004992	537.0304632609513	379.7970904429357	-290.68208975492485	350.85211792762226	75.57441935351633	-165.79654063441217	122.09626321570718	159.32294601500757
810	4.045	-192.8647471898063	536.4089536136979	379.6235881103248	-290.12560221039246	350.6902502252841	74.86306293024066	-165.0079489133777	121.70139850728151	157.62069562786613
811	4.05	-192.90786176828112	535.7905158991193	379.45285368106687	-289.5764008284309	350.5289343831066	74.16205728162967	-164.2212911703955	121.31676130338195	155.93803931631996
812	4.055	-192.9479130266217	535.1752511525491	379.2848867468621	-289.0345749536747	350.36817031653953	73.47137155213107	-163.43690652332805	120.94224546836784	154.2753090463176
813	4.06	-192.98494869196475	534.5632616126737	379.11968476827116	-288.50020504347503	350.20795618220717	72.79097405513552	-162.65513453214618	120.57773719299666	152.63283297717368
814	4.065	-193.01901858228084	533.9546505238205	378.95724307710447	-287.97336276930764	350.0482884582225	72.12083217135444	-161.87631476860213	120.22311482098253	151.01093417465773
815	4.07	-193.05017455637696	533.3495219322566	378.7975548803549	-287.45411113752084	349.88916203300164	71.46091223748459	-161.10078636372612	119.87824872866683	149.40992931750105
816	4.075	-193.0784704596127	532.7479804773478	378.640611265736	-286.942504628716	349.7305703027788	70.81117942553148	-160.328887535334	119.54300125830345	147.83012740349938
817	4.08	-193.10396206545803	532.1501311784292	378.48640120889576	-286.4385893550035	349.5725052779678	70.17159761324226	-159.56095509787033	119.21722670514109	146.27182846139073
818	4.085	-193.12670701303287	531.5560792182499	378.3349115823821	-285.94240323433496	349.4149576984633	69.54212924618102	-158.7973239570311	118.90077135816566	144.7353222746579
819	4.09	-193.14676474078507	530.965929723861	378.1861271664456	-285.4539761810778	349.25791715790626	68.92273519206225	-158.03832659171348	118.59347359404869	143.22088712334693
820	4.095	-193.16419641647784	530.3797875458125	378.0400306617673	-284.9733303119638	349.10137223687514	68.31337458804282	-157.28429252592397	118.29516402353457	141.72878854990628
821	4.1	-193.17906486367124	529.797757036523	377.8966027042074	-284.50048016652	348.9453106448889	67.71400468175739	-156.53554779334144	118.00566568919197	140.25927815493907
822	4.105	-193.19143448489334	529.2199418286806	377.75582188167283	-284.0354329410635	348.7897193710338	67.12458066696527	-155.7924143972802	117.7247943131542	138.81259242861628
823	4.11	-193.20137118171104	528.6464446145234	377.61766475320906	-283.5781887353293	348.6345848429436	66.54505551475921	-155.05520976882562	117.45235859318379	137.38895162333336
824	4.115	-193.20894227191843	528.0773669268291	377.482105870419	-283.1287408107804	348.47989309378096	65.97537980136417	-154.3242462259247	117.18816054511626	135.98855867299693
825	4.12	-193.21421640407206	527.5128089224349	377.3491178013196	-282.68707585964336	348.32562993678465	65.41550153363025	-153.59983043620613	116.93199588947178	134.61159816411217
826	4.125	-193.21726346960986	526.9528691690837	377.218671156743	-282.25317428370323	348.1717811468548	64.86536597339307	-152.88226288627567	116.6836544797707	133.25823536359786
827	4.13	-193.21815451279898	526.397644436367	377.0907346193904	-281.82701048188596	348.0183326485658	64.32491546193899	-152.17183736018944	116.44292076985295	131.92861530799354
828	4.135	-193.2169616387631	525.8472294915161	376.9652749756453	-281.40855314565664	347.86527070990314	63.794089245869294	-151.46884042974455	116.20957431728155	130.62286195843924
829	4.14	-193.21375791984588	525.3017169007574	376.8422571502504	-280.99776556125846	347.71258214093564	63.27282330570698	-150.77355095914803	115.98339031971015	129.34107742550265
830	4.145	-193.20861730057038	524.7611968369185	376.7216442439473	-280.59460591782005	347.5602544965442	62.76105018862863	-150.0862396265311	115.76414018091391	128.08334126760914
831	4.15	-193.20161450145864	524.2257568939413	376.6033975741737	-280.1990276203588	347.40827628224633	62.25869884673517	-149.40716846466637	115.55159210302301	126.84970986649125
832	4.155	-193.1928249219758	523.6954819089118	376.48747671890675	-279.81097960671406	347.25663716207015	61.76569448229464	-148.73659042312195	115.34551170136042	125.6402158827226
833	4.16	-193.18232454286564	523.170453792192	376.3738395637311	-279.43040666744366	347.1053281673561	61.28195840139842	-148.07474895395126	115.14566263817002	124.45486779403666
